<?xml version="1.0" encoding="UTF-8" standalone="no"?>
<svg
   xmlns:dc="http://purl.org/dc/elements/1.1/"
   xmlns:cc="http://creativecommons.org/ns#"
   xmlns:rdf="http://www.w3.org/1999/02/22-rdf-syntax-ns#"
   xmlns:svg="http://www.w3.org/2000/svg"
   xmlns="http://www.w3.org/2000/svg"
   xmlns:sodipodi="http://sodipodi.sourceforge.net/DTD/sodipodi-0.dtd"
   xmlns:inkscape="http://www.inkscape.org/namespaces/inkscape"
   sodipodi:docname="mc-soo-good-black.svg"
   id="svg8"
   version="1.1"
   viewBox="0 0 176.51918 70.13044"
   height="70.13044mm"
   width="176.51918mm"
   inkscape:version="1.0.1 (3bc2e813f5, 2020-09-07)"
   inkscape:export-filename="C:\Users\mcfly6\Desktop\mc-soo-good.png"
   inkscape:export-xdpi="96"
   inkscape:export-ydpi="96">
  <defs
     id="defs2" />
  <sodipodi:namedview
     id="base"
     pagecolor="#ffffff"
     bordercolor="#666666"
     borderopacity="1.0"
     inkscape:pageopacity="0.0"
     inkscape:pageshadow="2"
     inkscape:zoom="0.44"
     inkscape:cx="111.09514"
     inkscape:cy="-77.268297"
     inkscape:document-units="mm"
     inkscape:current-layer="layer1"
     inkscape:document-rotation="0"
     showgrid="false"
     showguides="true"
     inkscape:guide-bbox="true"
     inkscape:window-width="1366"
     inkscape:window-height="745"
     inkscape:window-x="-8"
     inkscape:window-y="-8"
     inkscape:window-maximized="1"
     inkscape:snap-bbox="true"
     inkscape:snap-smooth-nodes="true"
     inkscape:object-paths="false"
     inkscape:snap-bbox-midpoints="true"
     width="200mm"
     fit-margin-top="2"
     fit-margin-left="2"
     fit-margin-right="2"
     fit-margin-bottom="2"
     lock-margins="true">
    <sodipodi:guide
       position="66.145947,304.74201"
       orientation="0,-1"
       id="guide1409" />
  </sodipodi:namedview>
  <metadata
     id="metadata5">
    <rdf:RDF>
      <cc:Work
         rdf:about="">
        <dc:format>image/svg+xml</dc:format>
        <dc:type
           rdf:resource="http://purl.org/dc/dcmitype/StillImage" />
        <dc:title></dc:title>
      </cc:Work>
    </rdf:RDF>
  </metadata>
  <g
     inkscape:groupmode="layer"
     id="layer1"
     inkscape:label="Layer 1"
     transform="translate(-15.480821,-165.36956)">
    <g
       inkscape:label="GridCartesian:X3:Y3"
       transform="translate(114.62896,85.74632)"
       id="g7022"
       style="fill:#ffffff;fill-opacity:0.951807;stroke:#070707;stroke-width:0;stroke-miterlimit:4;stroke-dasharray:none;stroke-opacity:1">
      <g
         inkscape:label="SubMinorYGridlines"
         id="g7018"
         transform="matrix(6.5511134,0,0,6.5511128,-94.965988,58.912885)"
         style="fill:#ffffff;fill-opacity:0.951807;stroke:#070707;stroke-width:0;stroke-miterlimit:4;stroke-dasharray:none;stroke-opacity:1" />
      <path
         id="path8635"
         style="fill:#000000;fill-opacity:0.903614;stroke:#070707;stroke-width:0;stroke-linejoin:round;stroke-miterlimit:4;stroke-dasharray:none;stroke-opacity:1"
         d="m -60.039228,81.69547 0.03342,0.49121 c 0.0183,0.27028 0.42399,5.13616 0.901573,10.81281 l 0.868274,10.32091 10.729188,0.11271 c 7.433692,0.078 10.741391,0.0415 10.769693,-0.11898 0.04224,-0.23954 -1.661398,-19.4236 -1.836909,-20.68474 l -0.09894,-0.71016 -10.682978,-0.11188 z m 23.302147,21.61866 c -0.0283,0.1605 3.254348,0.26604 10.688113,0.34369 l 10.729306,0.11202 4.498078,-10.26472 c 2.4740231,-5.64573 4.5910321,-10.4852 4.7044021,-10.7541 l 0.206204,-0.4887 -10.6833251,-0.11188 -10.682981,-0.11188 -0.34855,0.70549 c -0.618789,1.25281 -9.06901,20.33054 -9.111247,20.57008 z m -9.015023,22.92195 c -5.866405,-0.0614 -10.683624,-0.0382 -10.704872,0.0515 -0.02135,0.0898 0.381851,4.90646 0.895606,10.70344 l 0.934132,10.53988 10.743691,0.11285 c 0.03938,4.2e-4 0.05354,5.6e-4 0.09323,9.8e-4 l 10.435819,0.10895 0.101297,-0.23312 c 0.05989,-0.0401 0.0697,-0.0879 0.06273,-0.14395 l 4.396626,-10.10527 c 2.508455,-5.76534 4.569624,-10.55617 4.580198,-10.6461 0.01053,-0.0898 -4.64286,-0.21223 -10.341014,-0.2719 l -0.531042,-0.006 -9.829447,-0.10294 z m -39.699972,-0.27081 -5.838434,10.08775 c -3.21116,5.54825 -5.84707,10.13673 -5.85761,10.19652 -0.0105,0.0598 4.56398,0.15558 10.165694,0.21265 l 10.184925,0.10366 5.476811,-9.4886 c 3.012053,-5.21857 5.663478,-9.80533 5.892288,-10.19305 l 0.415942,-0.70512 -10.219616,-0.10702 z m 69.532891,0.78928 0.166548,0.71123 c 0.09147,0.39108 1.118453,5.0163 2.282231,10.27864 l 2.115904,9.56812 10.1830071,0.10865 c 5.600514,0.0606 10.1914517,0.0607 10.201989,9.8e-4 0.010544,-0.0598 -1.0003984,-4.6864 -2.2464635,-10.28138 L 4.5183653,126.9683 -5.7002119,126.86129 Z" />
      <circle
         style="fill:#ffffff;fill-opacity:0.951807;stroke:#070707;stroke-width:0;stroke-miterlimit:4;stroke-dasharray:none;stroke-opacity:1"
         id="path910"
         cx="127.7439"
         cy="135.80295"
         r="0" />
      <path
         style="fill:#ffffff;fill-opacity:0.951807;stroke:#070707;stroke-width:0;stroke-linecap:round;stroke-linejoin:bevel;stroke-miterlimit:4;stroke-dasharray:none;stroke-opacity:1;paint-order:stroke markers fill"
         d=""
         id="path1064"
         transform="matrix(0.26458333,0,0,0.26458333,-114.33093,-22.813704)" />
      <path
         style="fill:#ffffff;fill-opacity:0.951807;stroke:#070707;stroke-width:0;stroke-linecap:round;stroke-linejoin:bevel;stroke-miterlimit:4;stroke-dasharray:none;stroke-opacity:1;paint-order:stroke markers fill"
         d=""
         id="path1066"
         transform="matrix(0.26458333,0,0,0.26458333,-114.33093,-22.813704)" />
      <path
         style="fill:#ffffff;fill-opacity:0.951807;stroke:#070707;stroke-width:0;stroke-linecap:round;stroke-linejoin:bevel;stroke-miterlimit:4;stroke-dasharray:none;stroke-opacity:1;paint-order:stroke markers fill"
         d=""
         id="path1068"
         transform="matrix(0.26458333,0,0,0.26458333,-114.33093,-22.813704)" />
      <path
         id="path1106"
         style="fill:#000000;fill-opacity:0.903614;stroke:#070707;stroke-width:0;stroke-linecap:round;stroke-linejoin:round;stroke-miterlimit:4;stroke-dasharray:none;stroke-opacity:1;paint-order:stroke markers fill"
         d="m 50.650743,82.642 v 0 0 c 0,0 0.0078,0.0359 0.02267,0.10424 0.185777,0.85433 1.475019,6.78282 2.434033,11.18446 l 2.053724,9.42535 10.1264,0.16248 10.126307,0.163 -2.270813,-10.41388 -2.27133,-10.41388 -10.110493,-0.10588 -7.946387,-0.0832 -1.276257,-0.0134 -0.73487,-0.008 z m 0,0 c 0,0 -29.039962,18.04479 -30.394076,18.94602 -0.144509,0.0962 -0.233104,0.16853 -0.130259,0.22487 l -2.700027,4.66329 c -1.556784,2.6884 -2.843379,4.96045 -2.858711,5.0494 -0.01541,0.089 4.4809,0.20898 9.991537,0.26668 9.323985,0.0976 10.037509,0.079 10.281396,-0.27026 0.183245,-0.26243 0.136852,-1.77327 -0.15371,-5.024 l -0.390755,-4.3726 5.16636,0.0526 5.643419,-9.7672 c 3.103905,-5.37205 6.432676,-9.7595 6.432676,-9.7595 z m -27.251846,35.73074 c -5.510634,-0.0577 -10.032383,-0.0335 -10.048123,0.0542 -0.01581,0.0877 0.471907,2.34628 1.08343,5.01871 l 1.060334,4.63588 c -0.122166,0.0531 -0.05917,0.12605 0.05116,0.22367 l 9e-5,-5.1e-4 c 1.03419,0.91316 23.571283,19.23573 23.661437,19.23667 0.875472,0.0733 0.103383,0.0215 -2.110517,-9.7081 l -2.209217,-9.70913 -5.165919,-0.0551 1.917553,-4.2863 c 1.425598,-3.18637 1.999895,-4.66942 1.909037,-4.93094 -0.120937,-0.34803 -0.825283,-0.38143 -10.149268,-0.47908 z m 15.808326,29.16865 0.716615,0.008 9.393884,0.0984 10.110493,0.10588 5.902533,-10.17969 5.902537,-10.1797 -10.146688,-0.0504 -10.146172,-0.0503 -5.340222,9.21331 c -2.93704,5.06743 -5.57675,9.6233 -5.866338,10.12417 z"
         sodipodi:nodetypes="cccscccccccccccccscccsscccccsscccccssccccscccccccccsc"
         transform="matrix(0.99861938,0,0,1.0150383,0.06127574,-2.261556)" />
    </g>
  </g>
</svg>
